<svg xmlns="http://www.w3.org/2000/svg" height="800" width="1200" version="1.2" viewBox="-76.8 -122.28175 665.6 733.6905"><g transform="translate(0 -11.437)"><circle r="156.268" fill="#4285F4" cy="167.705" cx="156.268"/><path fill="#34A853" d="M512 182.95c0 17.544-14.224 31.762-31.762 31.762s-31.762-14.218-31.762-31.762c0-17.543 14.224-31.762 31.762-31.762S512 165.407 512 182.95z"/><path fill="#EA4335" d="M454.829 260.449c0 35.081-28.438 63.522-63.523 63.522-35.088 0-63.524-28.441-63.524-63.522 0-35.083 28.437-63.524 63.524-63.524 35.086 0 63.523 28.442 63.523 63.524z"/><path fill="#FBBC05" d="M467.533 424.339c0 42.1-34.124 76.225-76.228 76.225-42.104 0-76.229-34.125-76.229-76.225 0-42.098 34.124-76.227 76.229-76.227 42.104 0 76.228 34.129 76.228 76.227z"/></g></svg>